# xmcd
# 
# Track frame offsets:
#     150
#     15754
#     42882
#     56855
#     70273
#     85881
#     110194
#     124805
#     145675
#     164474
#     185032
#     205131
#     219123
# 
# Disc length: 3169
# 
# Revision: 0
# Processed by: cddbd v1.5.2PL0 Copyright (c) Steve Scherf et al.
# Submitted via: BonkEnc v1.0.15
# 
DISCID=b80c5f0d
DTITLE=Mr.Boogie Woogie - Just Like That!
DYEAR=2010
DGENRE=Blues
TTITLE0=I Chose To Sing The Blues
TTITLE1=Big Chief
TTITLE2=Much Later
TTITLE3=Lay Around (and love on you)
TTITLE4=Shut Your Mouth
TTITLE5=Anytime Is Fine
TTITLE6=Auw!
TTITLE7=Cleanhead Blues
TTITLE8=Rocket 88
TTITLE9=Read Me My Rights
TTITLE10=Junk Yard Blues
TTITLE11=Livin’ It Down
TTITLE12=Sell My Monkey
EXTD=
EXTT0=
EXTT1=
EXTT2=
EXTT3=
EXTT4=
EXTT5=
EXTT6=
EXTT7=
EXTT8=
EXTT9=
EXTT10=
EXTT11=
EXTT12=
PLAYORDER=
